<svg width="1000" height="197" viewBox="0 0 1000 197" fill="none" xmlns="http://www.w3.org/2000/svg">
<path d="M116 37L58 74L116 111L58 148L0 110.8L58 73.8L0 37L58 0L116 37ZM57.7 159.9L115.7 122.9L173.7 159.9L115.7 196.9L57.7 159.9ZM116 110.8L174 73.8L116 37L173.7 0L231.7 37L173.7 74L231.7 111L173.7 148L116 110.8Z" fill="#EFEFEF"/>
<path d="M277.2 37H324.1C354 37 378.7 54.3 378.7 93.8V102.1C378.7 141.9 355.6 159.8 325 159.8H277.2V37ZM303.4 59.2999V137.4H323.5C340.5 137.4 351.9 126.3 351.9 101.6V95.0999C351.9 70.3999 339.9 59.2999 322.6 59.2999H303.4ZM392.6 60.5H413.6L417 83.5999C421 67.8999 431.2 59.5 449.7 59.5H456.2V86H445.4C424.1 86 418.9 93.3999 418.9 114.4V160.1H393V60.5H392.6ZM461.4 112.3V109.5C461.4 76.2 482.7 58 511.7 58C541.3 58 562 76.2 562 109.5V112.3C562 145 541.9 162.6 511.7 162.6C479.6 162.3 461.4 145.1 461.4 112.3ZM535.5 112V109.5C535.5 91 526.2 79.9 511.4 79.9C496.9 79.9 487.3 90.1 487.3 109.5V112C487.3 129.9 496.6 140.1 511.4 140.1C526.2 139.8 535.5 129.9 535.5 112ZM575.6 60.5H597.2L599.7 79.3C604.9 66.7 616 58 632.4 58C657.7 58 674.4 76.1999 674.4 109.9V112.7C674.4 145.4 655.9 162.7 632.4 162.7C616.7 162.7 605.9 155.6 600.6 144.2V194.5H575.3L575.6 60.5ZM648.1 112V109.8C648.1 90 637.9 80.1999 624.3 80.1999C609.8 80.1999 600.2 91.3 600.2 109.8V111.7C600.2 129.3 609.5 140.4 624 140.4C638.9 140.1 648.1 130.6 648.1 112ZM712.7 141.7L710.5 159.9H688.3V27.2H713.6V78.0999C719.2 65.0999 730.3 58 746 58C769.8 58.3 787.4 74.7 787.4 107.7V110.8C787.4 143.8 770.7 162.7 745.4 162.7C728.7 162.3 717.9 154.6 712.7 141.7ZM760.8 110.8V108.3C760.8 90.1 750.9 79.9 737 79.9C722.8 79.9 712.9 91.2999 712.9 108.6V110.8C712.9 129.3 722.5 140.1 736.7 140.1C751.9 140.1 760.8 130.6 760.8 110.8ZM798.5 112.3V109.5C798.5 76.2 819.8 58 848.8 58C878.4 58 899.1 76.2 899.1 109.5V112.3C899.1 145 878.7 162.6 848.8 162.6C816.7 162.3 798.5 145.1 798.5 112.3ZM872.8 112V109.5C872.8 91 863.5 79.9 848.7 79.9C834.2 79.9 824.6 90.1 824.6 109.5V112C824.6 129.9 833.9 140.1 848.7 140.1C863.6 139.8 872.8 129.9 872.8 112ZM933 108.3L898.1 60.5H928L948.1 90.4L968.5 60.5H998.1L962.7 108L1000 159.9H970.7L947.9 126.9L925.7 159.9H895.1L933 108.3Z" fill="#EFEFEF"/>
</svg>
