<svg width="601" height="149" viewBox="0 0 601 149" fill="none" xmlns="http://www.w3.org/2000/svg">
<path d="M368.1 114.9H367.9C368 114.9 368 115 368.1 115H368.2L368.1 114.9ZM368.1 115C367.3 115 365.2 115.4 363 115.4C356.1 115.4 353.7 112.2 353.7 108V80.2H367.8C368.6 80.2 369.2 79.5 369.2 78.5V63.4C369.2 62.6 368.5 61.9 367.8 61.9H353.7V43.1C353.7 42.4 353.2 42 352.4 42H333.2C332.4 42 332 42.5 332 43.1V62.4C332 62.4 322.3 64.8 321.7 64.9C321 65.1 320.6 65.7 320.6 66.4V78.5C320.6 79.5 321.3 80.2 322.1 80.2H331.9V109.4C331.9 131.1 347 133.3 357.3 133.3C362 133.3 367.7 131.8 368.6 131.3C369.1 131.1 369.4 130.5 369.4 129.9V116.6C369.4 115.8 368.9 115.2 368.1 115ZM578.7 95.5C578.7 79.4 572.2 77.3 565.4 78C560.1 78.3 555.8 81 555.8 81V112.3C555.8 112.3 560.1 115.3 566.6 115.5C575.7 115.7 578.7 112.4 578.7 95.5ZM600.3 94.1C600.3 124.6 590.4 133.3 573.2 133.3C558.6 133.3 550.8 125.9 550.8 125.9C550.8 125.9 550.5 130 550 130.5C549.7 131 549.3 131.2 548.7 131.2H535.6C534.7 131.2 533.9 130.5 533.9 129.7L534.1 31C534.1 30.2 534.8 29.5 535.6 29.5H554.5C555.3 29.5 556 30.2 556 31V64.5C556 64.5 563.3 59.8 574 59.8L573.9 59.6C584.5 59.6 600.3 63.6 600.3 94.1ZM522.8 62H504.1C503.1 62 502.6 62.7 502.6 63.7V112C502.6 112 497.7 115.4 491 115.4C484.4 115.4 482.4 112.4 482.4 105.7V63.5C482.4 62.7 481.7 62 480.9 62H461.9C461.1 62 460.4 62.7 460.4 63.5V109C460.4 128.5 471.3 133.4 486.3 133.4C498.7 133.4 508.7 126.6 508.7 126.6C508.7 126.6 509.2 130.1 509.4 130.6C509.6 131 510.2 131.4 510.8 131.4H522.7C523.7 131.4 524.2 130.7 524.2 129.9L524.4 63.5C524.5 62.7 523.7 62 522.8 62ZM312.2 61.9H293.3C292.5 61.9 291.8 62.7 291.8 63.7V128.9C291.8 130.7 293 131.3 294.5 131.3H311.6C313.4 131.3 313.8 130.5 313.8 128.9V63.4C313.7 62.6 313 61.9 312.2 61.9ZM302.8 31.8C296 31.8 290.5 37.2 290.5 44.1C290.5 50.9 295.9 56.4 302.8 56.4C309.5 56.4 314.9 51 314.9 44.1C314.9 37.3 309.5 31.8 302.8 31.8ZM449.4 29.6H430.6C429.8 29.6 429.1 30.3 429.1 31.1V67.4H399.7V31.1C399.7 30.3 399 29.6 398.2 29.6H379.3C378.5 29.6 377.8 30.3 377.8 31.1V129.8C377.8 130.6 378.6 131.3 379.3 131.3H398.2C399 131.3 399.7 130.6 399.7 129.8V87.6H429.1L428.9 129.8C428.9 130.6 429.6 131.3 430.4 131.3H449.3C450.1 131.3 450.8 130.6 450.8 129.8V31.1C450.9 30.3 450.2 29.6 449.4 29.6ZM281.7 73.3V124.3C281.7 124.6 281.6 125.3 281.2 125.4C281.2 125.4 270.1 133.3 251.8 133.3C229.7 133.3 203.4 126.4 203.4 80.7C203.4 35 226.3 25.6 248.7 25.7C268.1 25.7 275.9 30.1 277.1 30.9C277.4 31.4 277.6 31.7 277.6 32.1L274 48C274 48.8 273.2 49.8 272.2 49.5C269 48.5 264.2 46.6 252.9 46.6C239.8 46.6 225.8 50.3 225.8 79.8C225.8 109.2 239.1 112.7 248.7 112.7C256.9 112.7 259.8 111.7 259.8 111.7V91.3H246.7C245.7 91.3 245 90.6 245 89.8V73.4C245 72.6 245.7 71.9 246.7 71.9H280C281 71.8 281.7 72.5 281.7 73.3Z" fill="#EFEFEF"/>
<path fill-rule="evenodd" clip-rule="evenodd" d="M76.3999 0.400024C34.2999 0.400024 0.199951 34.5 0.199951 76.6C0.199951 110.3 22 138.8 52.3 148.9C56.1 149.5 57.5999 147.3 57.5999 145.3C57.5999 143.5 57.5 137.5 57.5 131.1C38.4 134.6 33.4 126.4 31.9 122.2C31 120 27.2999 113.2 24.0999 111.4C21.3999 110 17.6 106.4 24 106.3C30 106.2 34.3 111.8 35.7 114.1C42.6 125.6 53.5 122.4 57.9 120.4C58.6 115.5 60.6 112.1 62.8 110.2C45.9 108.3 28.0999 101.7 28.0999 72.6C28.0999 64.3 31.1 57.4 35.9 52.1C35.1 50.2 32.5 42.4 36.7 31.9C36.7 31.9 43.0999 29.9 57.6999 39.7C63.7999 38 70.3 37.1 76.7 37.1C83.2 37.1 89.6 38 95.7 39.7C110.3 29.8 116.6 31.9 116.6 31.9C120.8 42.4 118.1 50.2 117.4 52.1C122.3 57.4 125.2 64.2 125.2 72.6C125.2 101.8 107.4 108.3 90.3999 110.2C93.1999 112.6 95.5999 117.1 95.5999 124.3C95.5999 134.5 95.5 142.7 95.5 145.2C95.5 147.2 96.9 149.6 100.7 148.8C131.7 138.3 152.6 109.2 152.6 76.5C152.6 34.5 118.5 0.400024 76.3999 0.400024Z" fill="#EFEFEF"/>
</svg>
