<svg width="20" height="20" viewBox="0 0 20 20" fill="none" xmlns="http://www.w3.org/2000/svg">
<path fill-rule="evenodd" clip-rule="evenodd" d="M18 6C18 6.173 17.988 6.347 17.965 6.521C19.198 7.215 20 8.535 20 10C20 11.465 19.198 12.785 17.965 13.479C17.988 13.653 18 13.827 18 14C18 16.379 15.857 18.283 13.479 17.965C12.786 19.198 11.466 20 10 20C8.534 20 7.214 19.198 6.521 17.965C4.138 18.283 2 16.379 2 14C2.00024 13.8258 2.01193 13.6517 2.035 13.479C0.802 12.785 0 11.465 0 10C0 8.535 0.802 7.215 2.035 6.521C2.012 6.347 2 6.173 2 6C2 3.621 4.138 1.712 6.521 2.035C7.214 0.802 8.534 0 10 0C11.466 0 12.786 0.802 13.479 2.035C15.857 1.712 18 3.621 18 6ZM6.4 12.4C6.4 13.8274 6.4828 14.9698 7.9126 14.779C8.3284 15.5188 9.1204 16 10 16C10.8796 16 11.6716 15.5188 12.0874 14.779C13.5142 14.9698 13.6 13.8274 13.6 12.4L10 11.3514L6.4 12.4ZM16 10C16 10.879 15.5188 11.671 14.779 12.0874L12.7231 10L14.779 7.9126C15.5188 8.329 16 9.121 16 10ZM13.6 7.6C13.6 6.1726 13.5142 5.0272 12.0874 5.221C11.6716 4.4812 10.8796 4 10 4C9.1204 4 8.3284 4.4812 7.9126 5.221C6.4828 5.0272 6.4 6.1726 6.4 7.6L10 8.64862L13.6 7.6ZM4 10C4 9.121 4.4812 8.329 5.221 7.9126L7.27686 10L5.221 12.0874C4.4812 11.671 4 10.879 4 10Z" fill="white"/>
</svg>
